<?xml version="1.0" standalone="no"?><!DOCTYPE svg PUBLIC "-//W3C//DTD SVG 1.1//EN" "http://www.w3.org/Graphics/SVG/1.1/DTD/svg11.dtd"><svg t="1535526629751" class="icon" style="" viewBox="0 0 1024 1024" version="1.1" xmlns="http://www.w3.org/2000/svg" p-id="5973" xmlns:xlink="http://www.w3.org/1999/xlink" width="200" height="200"><defs><style type="text/css"></style></defs><path d="M989.866667 750.933333H887.466667V512a34.133333 34.133333 0 0 0-34.133334-34.133333H546.133333V273.066667h102.4a34.133333 34.133333 0 0 0 34.133334-34.133334v-204.8a34.133333 34.133333 0 0 0-34.133334-34.133333h-273.066666a34.133333 34.133333 0 0 0-34.133334 34.133333v204.8a34.133333 34.133333 0 0 0 34.133334 34.133334H477.866667v204.8H170.666667a34.133333 34.133333 0 0 0-34.133334 34.133333V750.933333H34.133333a34.133333 34.133333 0 0 0-34.133333 34.133334v204.8a34.133333 34.133333 0 0 0 34.133333 34.133333h204.8a34.133333 34.133333 0 0 0 34.133334-34.133333v-204.8a34.133333 34.133333 0 0 0-34.133334-34.133334H204.8V546.133333h614.4v204.8h-34.133333a34.133333 34.133333 0 0 0-34.133334 34.133334v204.8a34.133333 34.133333 0 0 0 34.133334 34.133333h204.8a34.133333 34.133333 0 0 0 34.133333-34.133333v-204.8a34.133333 34.133333 0 0 0-34.133333-34.133334zM409.6 68.266667h204.8v136.533333H409.6zM204.8 955.733333H68.266667v-136.533333h136.533333z m750.933333 0h-136.533333v-136.533333h136.533333z" fill="#666666" p-id="5974"></path></svg>