<?xml version="1.0" standalone="no"?><!DOCTYPE svg PUBLIC "-//W3C//DTD SVG 1.1//EN" "http://www.w3.org/Graphics/SVG/1.1/DTD/svg11.dtd"><svg t="1530335396523" class="icon" style="" viewBox="0 0 1025 1024" version="1.1" xmlns="http://www.w3.org/2000/svg" p-id="2103" xmlns:xlink="http://www.w3.org/1999/xlink" width="200.1953125" height="200"><defs><style type="text/css"></style></defs><path d="M1022.285779 529.28 1024.013779 661.12 819.149779 614.528 818.573779 567.616Z" p-id="2104"></path><path d="M886.029779 287.616 947.405779 402.496 752.909779 476.992 731.149779 436.032Z" p-id="2105"></path><path d="M636.365779 272.384 705.165779 64 811.277779 134.08 674.125779 297.216Z" p-id="2106"></path><path d="M814.413779 732.992c10.624 20.032 4.032 45.248-15.04 56.576L494.861779 219.456c19.008-11.264 43.008-4.096 53.76 15.936L814.413779 732.992z" p-id="2107"></path><path d="M93.581779 680.64 488.141779 258.176 610.381779 486.976 642.125779 546.624 764.365779 775.488 216.333779 910.528 154.957779 795.648Z" p-id="2108"></path><path d="M198.989779 935.36l-23.232 13.696c-38.912 23.04-88.064 8.448-110.016-32.448l-55.424-103.872c-21.76-40.896-8-92.736 30.912-115.776l23.168-13.76L198.989779 935.36z" p-id="2109"></path></svg>