<?xml version="1.0" standalone="no"?><!DOCTYPE svg PUBLIC "-//W3C//DTD SVG 1.1//EN" "http://www.w3.org/Graphics/SVG/1.1/DTD/svg11.dtd"><svg t="1535526636934" class="icon" style="" viewBox="0 0 1024 1024" version="1.1" xmlns="http://www.w3.org/2000/svg" p-id="6088" xmlns:xlink="http://www.w3.org/1999/xlink" width="200" height="200"><defs><style type="text/css"></style></defs><path d="M897.8 381.9c-16.7 0-30.3 13.6-30.3 30.3v373.6c0 26.4-21.3 47.8-47.5 47.8H171.4c-26.2 0-47.5-21.5-47.5-47.8V172.6c0-26.4 21.3-47.8 47.5-47.8h431.9c16.7 0 30.3-13.6 30.3-30.3S620 64.2 603.3 64.2H171.4c-59.5 0-108 48.6-108 108.3v613.2c0 59.7 48.4 108.3 108 108.3h648.5c59.6 0 108.1-48.6 108.2-108.3V412.2c0-16.7-13.6-30.3-30.3-30.3zM888 178.8c2.1-2.1 4.6-4.5 7.4-7.2s6-5.8 9.6-9.4c3.3-3.6 5.7-7.3 7.2-11.2 1.5-3.8 2.2-7.7 2.2-11.6 0-3.9-0.4-7.6-1.1-11.2-0.7-3.6-1.7-6.7-2.9-9.4-4.2-8.9-10.1-17.5-17.7-25.8-7.6-8.2-14.5-13.9-20.8-17.2-3-1.5-6.5-2.8-10.5-4s-8.2-1.9-12.5-2-8.7 0.5-13.2 1.8-8.8 3.6-13 6.9c-3.3 2.7-7.4 6.4-12.3 11-5 4.7-9.2 8.6-12.8 11.9l83.7 83.7c2.1-1.8 4.3-3.9 6.7-6.3z" p-id="6089"></path><path d="M574.3 324.4c-6.5 6.8-10.7 11-12.5 12.8-4.2 4.2-7.4 8-9.6 11.2-2.2 3.4-4.2 7.2-6 11.4-1.5 2.7-3.4 7.6-5.8 14.8s-4.9 15-7.4 23.5c-2.5 8.2-4.9 16.4-7.2 24.6-2.3 7.9-3.7 13.9-4.3 18.1-1.2 7.8-0.5 13.3 2.2 16.6 2.7 3.3 8 4.5 16.1 3.6 3.9-0.6 9.8-1.9 17.7-4 7.9-2.1 16.3-4.6 25.1-7.4 8.8-2.8 17.3-5.7 25.3-8.7s14.1-5.5 18.3-7.6c4.2-1.8 8.2-4.2 12.1-7.2 3.9-3 7.3-5.8 10.3-8.5 1.2-0.8 4.9-4.4 11.2-10.7 6.2-6.2 14.2-14.2 23.7-23.9s20.3-20.4 32.2-32l35.8-36.2 96.2-96.2-83.7-84.1-165.1 165.1c-9.8 9.8-18 18.1-24.6 24.8zM732.8 524.6H253.5c-16.7 0-30.3 13.6-30.3 30.3s13.6 30.3 30.3 30.3h479.3c16.7 0 30.3-13.5 30.3-30.3 0-16.7-13.6-30.3-30.3-30.3zM732.8 673.4H253.5c-16.7 0-30.3 13.6-30.3 30.3s13.6 30.3 30.3 30.3h479.3c16.7 0 30.3-13.6 30.3-30.3s-13.6-30.3-30.3-30.3z" p-id="6090"></path></svg>